<?xml version="1.0" encoding="utf-8"?>
<!-- Generator: Adobe Illustrator 16.0.0, SVG Export Plug-In . SVG Version: 6.00 Build 0)  -->
<!DOCTYPE svg PUBLIC "-//W3C//DTD SVG 1.1//EN" "http://www.w3.org/Graphics/SVG/1.1/DTD/svg11.dtd">
<svg version="1.1" id="Layer_1" xmlns="http://www.w3.org/2000/svg" xmlns:xlink="http://www.w3.org/1999/xlink" x="0px" y="0px"
	 width="50px" height="50px" viewBox="0 0 50 50" enable-background="new 0 0 50 50" xml:space="preserve">
<circle fill="none" stroke="#BF973F" stroke-linecap="round" stroke-linejoin="round" stroke-miterlimit="10" cx="25" cy="25" r="24.125"/>
<g>
	
		<circle fill="none" stroke="#BF973F" stroke-linecap="round" stroke-linejoin="round" stroke-miterlimit="10" cx="24.937" cy="13.057" r="3.544"/>
	<path fill="none" stroke="#BF973F" stroke-linecap="round" stroke-linejoin="round" stroke-miterlimit="10" d="M24.937,17.267
		c0,0-2.878-0.105-5.046,0.847c0,0-1.746,0.846-2.01,2.856l-0.793,2.116c0,0-3.767,2.424-4.655,3.597
		c-0.378,0.499-1.111,2.751,1.746,1.798c0,0,5.977-2.184,6.03-5.508l0.159,4.504l-3.091,0.699"/>
	
		<line fill="none" stroke="#BF973F" stroke-linecap="round" stroke-linejoin="round" stroke-miterlimit="10" x1="16.346" y1="40.487" x2="33.59" y2="40.487"/>
	<path fill="none" stroke="#BF973F" stroke-linecap="round" stroke-linejoin="round" stroke-miterlimit="10" d="M25.074,17.271
		c0,0,2.877-0.105,5.046,0.847c0,0,1.745,0.846,2.01,2.856l0.794,1.894c0,0,3.767,2.424,4.654,3.598
		c0.293,0.387,1.197,2.779-1.745,1.799c0,0-5.978-1.963-6.03-5.287l-0.158,4.504l3.186,0.506"/>
	<g>
		<path fill="none" stroke="#BF973F" stroke-linecap="round" stroke-linejoin="round" stroke-miterlimit="10" d="M20.801,34.678
			c0,0-0.303,0.131-0.382,0.203c-0.631,0.584-2.222,3.491,1.746,2.962l2.866-1.277"/>
		<path fill="none" stroke="#BF973F" stroke-linecap="round" stroke-linejoin="round" stroke-miterlimit="10" d="M29.277,34.67
			l6.641-2.963c0,0,3.227-4.072-2.804-3.596l-8.068,4.303"/>
		<path fill="none" stroke="#BF973F" stroke-linecap="round" stroke-linejoin="round" stroke-miterlimit="10" d="M17.137,28.195
			c-6.03-0.477-2.803,3.598-2.803,3.598l6.467,2.885l4.245-2.264L17.137,28.195z"/>
		<path fill="none" stroke="#BF973F" stroke-linecap="round" stroke-linejoin="round" stroke-miterlimit="10" d="M28.086,37.929
			c3.968,0.529,2.377-2.379,1.746-2.962c-0.115-0.107-0.555-0.297-0.555-0.297l-4.247,1.896L28.086,37.929z"/>
		<path fill="none" stroke="#BF973F" stroke-linecap="round" stroke-linejoin="round" stroke-miterlimit="10" d="M25.046,32.414"/>
	</g>
</g>
</svg>
