<?xml version="1.0" encoding="utf-8"?>
<!-- Generator: Adobe Illustrator 16.0.0, SVG Export Plug-In . SVG Version: 6.00 Build 0)  -->
<!DOCTYPE svg PUBLIC "-//W3C//DTD SVG 1.1//EN" "http://www.w3.org/Graphics/SVG/1.1/DTD/svg11.dtd">
<svg version="1.1" id="Layer_1" xmlns="http://www.w3.org/2000/svg" xmlns:xlink="http://www.w3.org/1999/xlink" x="0px" y="0px"
	 width="50px" height="50px" viewBox="0 0 50 50" enable-background="new 0 0 50 50" xml:space="preserve">
<circle fill="none" stroke="#BF973F" stroke-linecap="round" stroke-linejoin="round" stroke-miterlimit="10" cx="25" cy="25" r="24.125"/>
<g>
	<path fill-rule="evenodd" clip-rule="evenodd" fill="#BF973F" d="M25.152,12.019c0.048,0.033,0.097,0.063,0.144,0.098
		c0.182,0.135,0.253,0.32,0.197,0.535c-0.059,0.227-0.219,0.356-0.454,0.379c-0.092,0.009-0.186,0.004-0.278,0.004
		c-2.426,0-4.851-0.002-7.276,0.001c-0.847,0.001-1.521,0.569-1.683,1.4c-0.15,0.771,0.28,1.573,1.029,1.86
		c0.23,0.088,0.492,0.126,0.74,0.128c1.725,0.011,3.448,0.001,5.172,0.007c1.318,0.005,2.382,0.828,2.681,2.083
		c0.074,0.316,0.077,0.649,0.116,0.993c0.343,0.015,0.707-0.003,1.06,0.053c1.3,0.206,2.12,0.962,2.474,2.228
		c0.014,0.049,0.028,0.097,0.051,0.169c0.339,0,0.684,0,1.028,0c2.396,0.001,4.313,1.331,5.156,3.58
		c0.119,0.316,0.239,0.631,0.352,0.95c0.117,0.331,0.006,0.602-0.283,0.708c-0.274,0.102-0.533-0.029-0.658-0.346
		c-0.163-0.416-0.296-0.846-0.481-1.251c-0.754-1.652-2.05-2.586-3.861-2.61c-3.583-0.048-7.166-0.025-10.749-0.009
		c-1.768,0.008-3.315,1.128-3.953,2.825c-0.813,2.164-1.624,4.329-2.415,6.5c-0.855,2.35,0.889,4.752,3.383,4.655
		c1.133-0.044,2.037-0.555,2.691-1.487c0.179-0.255,0.326-0.532,0.502-0.79c0.087-0.127,0.089-0.226,0.024-0.367
		c-0.683-1.483,0.46-3.146,2.086-3.017c0.878,0.07,1.483,0.553,1.827,1.363c0.032,0.076,0.055,0.157,0.084,0.24
		c0.766,0,1.524,0,2.288,0c0.219-0.732,0.668-1.262,1.394-1.497c0.869-0.281,1.647-0.08,2.259,0.601
		c0.604,0.674,0.704,1.46,0.352,2.288c-0.07,0.164-0.059,0.272,0.03,0.412c0.348,0.549,0.665,1.116,1.193,1.527
		c1.198,0.931,2.882,0.982,4.115,0.114c1.247-0.88,1.778-2.461,1.302-3.901c-0.133-0.4-0.29-0.792-0.434-1.188
		c-0.124-0.347-0.014-0.629,0.278-0.73c0.287-0.101,0.554,0.031,0.666,0.372c0.237,0.719,0.456,1.443,0.682,2.166
		c0,0.304,0,0.608,0,0.912c-0.016,0.057-0.039,0.111-0.047,0.169c-0.27,1.828-1.649,3.332-3.418,3.724
		c-1.855,0.411-3.709-0.334-4.746-1.909c-0.152-0.232-0.296-0.469-0.452-0.717c-0.623,0.347-1.261,0.409-1.91,0.141
		c-0.657-0.271-1.063-0.777-1.264-1.446c-0.776,0-1.534,0-2.289,0c-0.313,1.174-1.648,2.091-3.183,1.321
		c-0.143,0.226-0.278,0.457-0.431,0.678c-1.096,1.588-2.618,2.285-4.508,1.967c-1.888-0.318-3.061-1.506-3.587-3.336
		c-0.055-0.192-0.087-0.394-0.129-0.591c0-0.304,0-0.608,0-0.912c0.108-0.406,0.187-0.824,0.33-1.217
		c0.774-2.114,1.563-4.223,2.352-6.333c0.825-2.212,2.761-3.555,5.119-3.557c0.354,0,0.707,0,1.056,0
		c0.019-0.062,0.032-0.102,0.044-0.142c0.353-1.3,1.197-2.064,2.526-2.263c0.336-0.05,0.686-0.007,1.021-0.007
		c0.146-1.247-0.599-2.098-1.791-2.1c-1.766-0.002-3.531,0.01-5.297-0.006c-1.161-0.011-2.212-0.852-2.518-1.967
		c-0.317-1.157,0.131-2.391,1.14-2.999c0.346-0.208,0.758-0.306,1.139-0.454C19.811,12.019,22.481,12.019,25.152,12.019z
		 M28.061,21.951c-0.026-0.089-0.038-0.155-0.064-0.213c-0.334-0.748-0.912-1.166-1.729-1.192c-0.842-0.027-1.688-0.024-2.53-0.001
		c-0.796,0.022-1.366,0.427-1.713,1.142c-0.038,0.078-0.056,0.165-0.088,0.265C23.99,21.951,26.005,21.951,28.061,21.951z
		 M20.673,33.411c-0.003,0.615,0.486,1.115,1.098,1.121c0.62,0.007,1.131-0.502,1.127-1.121c-0.005-0.612-0.504-1.107-1.114-1.107
		C21.169,32.304,20.677,32.795,20.673,33.411z M29.327,33.416c-0.001-0.616-0.492-1.11-1.105-1.112
		c-0.611-0.003-1.111,0.489-1.12,1.103c-0.008,0.617,0.503,1.13,1.122,1.126C28.836,34.529,29.327,34.031,29.327,33.416z"/>
	<path fill-rule="evenodd" clip-rule="evenodd" fill="#BF973F" d="M21.585,29.096c-0.147,0.307-0.237,0.606-0.416,0.84
		c-0.382,0.499-0.916,0.685-1.531,0.536c-0.601-0.145-0.979-0.539-1.129-1.142c-0.031-0.122-0.034-0.229-0.207-0.266
		c-0.769-0.164-1.263-0.765-1.256-1.496c0.006-0.743,0.522-1.338,1.299-1.497c0.032-0.006,0.065-0.011,0.094-0.016
		c0.354-1.053,0.831-1.456,1.667-1.411c0.714,0.039,1.233,0.55,1.413,1.393c0.941,0.25,1.404,0.755,1.406,1.534
		C22.927,28.358,22.467,28.863,21.585,29.096z M21.909,27.528c-0.006-0.021-0.013-0.081-0.034-0.134
		c-0.111-0.271-0.335-0.325-0.6-0.323c-0.658,0.003-0.779-0.124-0.783-0.785c0-0.025,0-0.051-0.001-0.076
		c-0.008-0.338-0.198-0.549-0.496-0.553c-0.295-0.003-0.501,0.211-0.517,0.539c-0.041,0.838-0.041,0.838-0.891,0.879
		c-0.307,0.014-0.526,0.224-0.526,0.502c-0.001,0.277,0.22,0.492,0.525,0.509c0.135,0.007,0.271-0.002,0.405,0.006
		c0.284,0.019,0.467,0.202,0.482,0.487c0.009,0.151-0.005,0.306,0.01,0.455c0.028,0.274,0.253,0.475,0.51,0.472
		c0.27-0.004,0.481-0.219,0.496-0.508c0.005-0.118-0.001-0.236,0.003-0.354c0.012-0.355,0.2-0.545,0.553-0.555
		c0.127-0.004,0.254,0.006,0.38-0.005C21.719,28.058,21.915,27.844,21.909,27.528z"/>
	<path fill-rule="evenodd" clip-rule="evenodd" fill="#BF973F" d="M26.888,25.96c0.887,0.007,1.609,0.738,1.604,1.625
		c-0.004,0.892-0.756,1.631-1.645,1.617c-0.898-0.014-1.608-0.749-1.598-1.657C25.261,26.66,25.991,25.953,26.888,25.96z
		 M26.858,26.976c-0.339,0.004-0.601,0.278-0.593,0.619c0.007,0.323,0.278,0.591,0.601,0.593c0.327,0.001,0.612-0.285,0.61-0.613
		C27.476,27.243,27.194,26.971,26.858,26.976z"/>
	<path fill-rule="evenodd" clip-rule="evenodd" fill="#BF973F" d="M31.341,25.96c0.888,0.004,1.612,0.729,1.613,1.617
		c0.001,0.89-0.746,1.633-1.636,1.625c-0.897-0.007-1.614-0.743-1.606-1.648C29.72,26.666,30.445,25.956,31.341,25.96z
		 M30.728,27.587c0.004,0.334,0.287,0.609,0.617,0.6c0.321-0.009,0.59-0.282,0.594-0.604c0.004-0.332-0.274-0.608-0.61-0.607
		C30.987,26.977,30.724,27.246,30.728,27.587z"/>
	<path fill-rule="evenodd" clip-rule="evenodd" fill="#BF973F" d="M36.51,28.849c0.007,0.271-0.208,0.502-0.48,0.515
		c-0.282,0.013-0.523-0.209-0.53-0.49c-0.007-0.276,0.229-0.52,0.506-0.52C36.273,28.354,36.502,28.579,36.51,28.849z"/>
</g>
</svg>
