<?xml version="1.0" encoding="utf-8"?>
<!-- Generator: Adobe Illustrator 16.0.0, SVG Export Plug-In . SVG Version: 6.00 Build 0)  -->
<!DOCTYPE svg PUBLIC "-//W3C//DTD SVG 1.1//EN" "http://www.w3.org/Graphics/SVG/1.1/DTD/svg11.dtd">
<svg version="1.1" id="Layer_1" xmlns="http://www.w3.org/2000/svg" xmlns:xlink="http://www.w3.org/1999/xlink" x="0px" y="0px"
	 width="50px" height="50px" viewBox="0 0 50 50" enable-background="new 0 0 50 50" xml:space="preserve">
<circle fill="none" stroke="#BF973F" stroke-linecap="round" stroke-linejoin="round" stroke-miterlimit="10" cx="25" cy="25" r="24.125"/>
<g>
	<path fill-rule="evenodd" clip-rule="evenodd" fill="#BF973F" d="M14.634,37.227c-0.801,0-1.575,0.008-2.348-0.003
		c-0.665-0.01-1.208-0.491-1.32-1.146c-0.105-0.613,0.255-1.248,0.854-1.47c0.164-0.062,0.348-0.091,0.523-0.097
		c0.424-0.013,0.85,0,1.274-0.006c0.287-0.004,0.459-0.146,0.502-0.399c0.164-0.959,0.379-1.194,1.329-1.445
		c-0.383-0.593-0.527-1.229-0.337-1.916c0.171-0.622,0.549-1.084,1.111-1.404c0.092-0.053,0.186-0.163,0.21-0.264
		c0.252-1.046,1.012-1.716,2.084-1.817c0.037-0.004,0.073-0.01,0.14-0.018c0-0.302,0-0.602,0-0.901c0-0.29,0-0.581,0-0.891
		c-1.667,0-3.306,0-4.967,0c-0.091-0.912,0.132-1.696,0.771-2.342c0.41-0.415,0.829-0.819,1.293-1.277c-0.729,0-1.384,0-2.062,0
		c-0.094-0.904,0.121-1.683,0.747-2.324c0.414-0.424,0.845-0.832,1.332-1.308c-0.751,0-1.412,0-2.088,0
		c0-0.391-0.025-0.749,0.007-1.102c0.034-0.373,0.235-0.675,0.54-0.896c1.662-1.204,2.937-2.729,3.827-4.578
		c0.211-0.437,0.568-0.68,1.058-0.679c0.478,0.002,0.833,0.236,1.038,0.663c0.896,1.857,2.177,3.388,3.844,4.601
		c0.375,0.273,0.555,0.657,0.552,1.124c-0.002,0.273,0,0.546,0,0.852c-0.676,0-1.338,0-2.053,0c0.781,0.938,1.916,1.556,2.033,2.897
		c1.765-1.354,2.528-1.416,4.162-0.37c0.155-0.263,0.318-0.523,0.463-0.792c0.034-0.063,0.024-0.162,0.006-0.237
		c-0.312-1.314,0.423-2.489,1.75-2.808c0.093-0.022,0.198-0.105,0.247-0.19c0.445-0.779,1.11-1.206,2.006-1.206
		c0.896,0.001,1.561,0.43,2.005,1.209c0.048,0.084,0.155,0.165,0.249,0.187c1.323,0.314,2.05,1.485,1.746,2.812
		c-0.021,0.092,0.007,0.224,0.062,0.301c0.505,0.711,0.61,1.463,0.28,2.277c-0.032,0.078-0.008,0.219,0.046,0.284
		c0.868,1.038,0.784,2.365-0.209,3.264c-0.064,0.058-0.12,0.17-0.114,0.252c0.076,0.941-0.259,1.696-1.058,2.197
		c-0.8,0.502-1.625,0.475-2.43-0.024c-0.023-0.015-0.05-0.025-0.101-0.051c0,1.051,0,2.088,0,3.134
		c0.813,0.076,1.391,0.471,1.691,1.249c0.024,0.063,0.156,0.118,0.239,0.119c0.68,0.01,1.359,0.003,2.039,0.006
		c0.826,0.003,1.438,0.577,1.443,1.35c0.005,0.784-0.61,1.367-1.452,1.368c-1.728,0.003-3.455-0.001-5.184,0.005
		c-0.136,0-0.324,0.002-0.396,0.084c-0.109,0.124-0.198,0.324-0.187,0.483c0.015,0.214,0.205,0.33,0.429,0.333
		c0.416,0.005,0.831,0.001,1.246,0.002c0.849,0.003,1.463,0.573,1.465,1.357c0.001,0.784-0.614,1.361-1.459,1.361
		c-5.769,0.001-11.537-0.016-17.306,0.017C15.243,39.062,14.367,38.405,14.634,37.227z M30.954,36.314
		c-0.273-1.152,0.6-1.846,1.499-1.82c1.679,0.047,3.36,0.014,5.04,0.014c0.085,0,0.172,0.008,0.255-0.008
		c0.243-0.045,0.392-0.194,0.392-0.445c0-0.25-0.146-0.402-0.391-0.445c-0.101-0.019-0.207-0.008-0.311-0.008
		c-7.231,0-14.462,0-21.693,0c-0.076,0-0.151-0.003-0.227,0.001c-0.304,0.014-0.46,0.166-0.488,0.474
		c-0.077,0.84-0.615,1.334-1.456,1.338c-0.424,0.002-0.85-0.007-1.274,0.005c-0.249,0.007-0.406,0.156-0.435,0.403
		c-0.027,0.236,0.096,0.401,0.319,0.473c0.096,0.031,0.205,0.024,0.308,0.024c1.944,0.002,3.889,0.001,5.834,0.001
		c0.101,0,0.202,0,0.312,0c0,0.314,0,0.601,0,0.907c-0.856,0-1.694-0.001-2.533,0c-0.408,0-0.621,0.156-0.62,0.454
		c0,0.296,0.213,0.45,0.622,0.452c0.019,0,0.038,0,0.057,0c5.739,0,11.479,0,17.218,0c0.094,0,0.19,0.009,0.282-0.008
		c0.244-0.043,0.394-0.192,0.395-0.443c0.002-0.25-0.145-0.401-0.389-0.448c-0.082-0.016-0.169-0.007-0.254-0.007
		c-1.038-0.001-2.077,0-3.115,0c-0.1,0-0.199,0-0.292,0c0-0.326,0-0.612,0-0.913C30.334,36.314,30.635,36.314,30.954,36.314z
		 M20.484,20.906c1.034,0,2.047,0,3.061,0c0.021-0.023,0.042-0.046,0.063-0.069c-0.174-0.249-0.322-0.522-0.527-0.742
		c-0.443-0.477-0.932-0.912-1.371-1.393c-0.32-0.352-0.649-0.617-1.158-0.517c-0.021,0.004-0.048-0.021-0.066-0.029
		c0-0.288,0-0.568,0-0.879c1.055,0,2.096,0,3.137,0c0.016-0.024,0.031-0.049,0.046-0.073c-0.1-0.112-0.189-0.238-0.302-0.335
		c-0.416-0.356-0.857-0.683-1.256-1.056c-1.128-1.055-2.02-2.289-2.708-3.671c-0.056-0.113-0.197-0.274-0.278-0.263
		c-0.114,0.015-0.234,0.155-0.308,0.27c-0.137,0.213-0.238,0.45-0.363,0.671c-0.902,1.591-2.088,2.93-3.559,4.02
		c-0.135,0.1-0.23,0.253-0.344,0.382c0.02,0.026,0.041,0.053,0.061,0.079c1.043,0,2.086,0,3.124,0c0,0.308,0,0.588,0,0.891
		c-0.192,0-0.371-0.01-0.546,0.004c-0.085,0.007-0.188,0.038-0.247,0.095c-0.645,0.637-1.292,1.272-1.917,1.928
		c-0.17,0.179-0.269,0.425-0.439,0.705c1.12,0,2.135,0,3.151,0c0,0.307,0,0.586,0,0.894c-0.189,0-0.367-0.01-0.543,0.004
		c-0.085,0.007-0.19,0.035-0.248,0.092c-0.652,0.643-1.305,1.286-1.937,1.949c-0.165,0.173-0.257,0.416-0.405,0.665
		c2.912,0,5.743,0,8.571,0c0.15-0.547,0.142-0.579-0.233-0.955c-0.394-0.394-0.804-0.772-1.176-1.186
		c-0.341-0.379-0.691-0.686-1.247-0.578c-0.006,0.001-0.014-0.011-0.035-0.029C20.484,21.511,20.484,21.231,20.484,20.906z
		 M30.329,20.068c-0.148,0.133-0.297,0.25-0.427,0.385c-0.344,0.357-0.495,1.021-0.302,1.361c0.898,1.577,1.04,3.24,0.602,4.979
		c-0.028,0.114,0.011,0.282,0.081,0.379c0.342,0.468,0.944,0.647,1.489,0.469c0.539-0.177,0.924-0.683,0.931-1.261
		c0.011-0.831-0.018-1.662,0.014-2.492c0.015-0.396-0.098-0.696-0.353-0.992c-0.472-0.548-0.908-1.125-1.369-1.704
		c0.248-0.198,0.473-0.378,0.703-0.562c0.337,0.414,0.651,0.801,0.966,1.188c0.02-0.01,0.039-0.02,0.058-0.029
		c0-0.893,0-1.785,0-2.669c0.312,0,0.598,0,0.911,0c0,1.515,0,3.007,0,4.548c0.348-0.432,0.659-0.819,0.988-1.228
		c0.238,0.192,0.464,0.373,0.704,0.566c-0.344,0.43-0.636,0.877-1.009,1.244c-0.601,0.589-0.827,1.27-0.702,2.086
		c0.001,0.009,0,0.019,0,0.028c0.03,0.583,0.306,1.007,0.843,1.233c0.519,0.219,1.009,0.129,1.421-0.246
		c0.432-0.392,0.556-0.884,0.376-1.443c-0.045-0.141-0.099-0.279-0.155-0.439c0.654-0.247,1.125-0.64,1.136-1.377
		c0.013-0.756-0.508-1.132-1.13-1.441c0.353-0.407,0.711-0.78,0.682-1.345c-0.029-0.564-0.376-0.923-0.803-1.227
		c0.078-0.151,0.147-0.274,0.207-0.401c0.436-0.927-0.229-1.966-1.253-1.929c-0.29,0.01-0.406-0.06-0.477-0.346
		c-0.152-0.626-0.681-1.022-1.295-1.025s-1.158,0.392-1.301,1.014c-0.072,0.313-0.209,0.363-0.498,0.354
		c-1.008-0.029-1.668,1.001-1.244,1.918C30.186,19.801,30.259,19.931,30.329,20.068z M21.873,30.203
		c-0.082-0.158-0.153-0.312-0.238-0.456c-0.281-0.481-0.805-0.756-1.335-0.654c-0.237,0.046-0.348-0.036-0.452-0.215
		c-0.183-0.312-0.44-0.54-0.789-0.651c-0.894-0.284-1.78,0.397-1.756,1.354c0.005,0.203,0.036,0.37-0.253,0.429
		c-0.616,0.124-0.996,0.52-1.099,1.144c-0.109,0.666,0.306,1.094,0.737,1.503c0.039,0.037,0.123,0.038,0.186,0.038
		c2.113,0.002,4.227,0.002,6.34-0.003c0.08-0.001,0.178-0.049,0.236-0.106c0.127-0.125,0.237-0.268,0.349-0.407
		c0.368-0.458,0.395-1.092,0.072-1.585c-0.325-0.495-0.909-0.72-1.48-0.563C22.22,30.077,22.054,30.142,21.873,30.203z
		 M28.98,23.461c-0.539,0.674-1.063,1.327-1.583,1.984c-0.056,0.07-0.122,0.161-0.123,0.242c-0.008,1.094-0.006,2.188-0.006,3.318
		c0.14-0.052,0.257-0.084,0.364-0.136c0.586-0.28,0.99-0.748,1.285-1.311c0.645-1.231,0.761-2.533,0.466-3.877
		c-0.189-0.866-0.552-1.646-1.234-2.241c-0.816-0.711-1.867-0.714-2.671,0.01c-0.243,0.218-0.466,0.475-0.636,0.753
		c-0.716,1.172-0.876,2.454-0.658,3.791c0.152,0.931,0.498,1.78,1.194,2.449c0.272,0.261,0.581,0.466,0.983,0.548
		c0-0.263-0.016-0.499,0.004-0.733c0.023-0.288-0.065-0.522-0.229-0.759c-0.458-0.657-0.895-1.331-1.339-1.999
		c-0.055-0.083-0.104-0.167-0.164-0.263c0.261-0.174,0.494-0.329,0.745-0.497c0.318,0.475,0.625,0.933,0.931,1.39
		c0.02-0.006,0.038-0.012,0.058-0.018c0-1.124,0-2.249,0-3.366c0.32,0,0.606,0,0.92,0c0,0.458,0,0.893,0,1.376
		c0.348-0.432,0.66-0.819,0.989-1.228C28.515,23.087,28.74,23.268,28.98,23.461z M19.563,25.451c0,0.641-0.001,1.252,0.002,1.864
		c0,0.051,0.012,0.122,0.045,0.15c0.273,0.228,0.551,0.45,0.834,0.665c0.046,0.035,0.125,0.03,0.19,0.037
		c0.619,0.059,1.133,0.318,1.553,0.78c0.071,0.078,0.22,0.133,0.326,0.123c1.548-0.133,2.785,1.271,2.422,2.778
		c-0.069,0.285-0.216,0.553-0.327,0.827c0.576,0,1.155,0,1.743,0c0-0.922,0-1.825,0-2.705c-2.212-0.712-2.886-2.481-3.17-4.521
		C21.977,25.451,20.789,25.451,19.563,25.451z M27.292,29.943c0,0.906,0,1.811,0,2.637c0.208-0.262,0.447-0.556,0.678-0.857
		c0.097-0.126,0.213-0.258,0.251-0.405c0.226-0.881,0.76-1.473,1.633-1.711c0.89-0.242,1.648,0.029,2.286,0.688
		c0.147,0.153,0.337,0.265,0.543,0.423c0-0.896,0-1.705,0-2.534c-1.06,0.665-2.035,0.546-2.95-0.226
		C28.948,29.192,28.474,29.577,27.292,29.943z M32.809,32.474c-0.021-0.069-0.044-0.12-0.055-0.174
		c-0.107-0.523-0.35-0.91-0.939-0.976c-0.063-0.007-0.13-0.097-0.173-0.162c-0.396-0.611-0.966-0.857-1.585-0.676
		c-0.623,0.182-0.991,0.721-0.963,1.451c0.007,0.199-0.054,0.286-0.238,0.341c-0.212,0.063-0.412,0.161-0.498,0.401
		c2.003,0,3.986,0,5.979,0C34.067,32.217,33.8,32.182,32.809,32.474z M23.991,21.841c-0.502,0-0.979,0-1.364,0
		c0.293,0.292,0.62,0.618,0.939,0.936c0.051-0.121,0.116-0.286,0.188-0.448C23.827,22.169,23.907,22.013,23.991,21.841z"/>
	<path fill-rule="evenodd" clip-rule="evenodd" fill="#BF973F" d="M23.184,35.899c0,0.284,0,0.557,0,0.822
		c-0.639,0-1.281,0.059-1.906-0.02c-0.479-0.06-0.749-0.463-0.795-0.947c-0.027-0.276-0.146-0.351-0.399-0.344
		c-0.461,0.012-0.923,0.003-1.406,0.003c0-0.299,0-0.585,0-0.889c0.59,0,1.184-0.038,1.77,0.012
		c0.497,0.042,0.874,0.471,0.915,0.976c0.023,0.291,0.15,0.365,0.414,0.358c0.443-0.013,0.887-0.001,1.33,0.001
		C23.124,35.872,23.141,35.884,23.184,35.899z"/>
</g>
</svg>
