<?xml version="1.0" encoding="utf-8"?>
<!-- Generator: Adobe Illustrator 16.0.0, SVG Export Plug-In . SVG Version: 6.00 Build 0)  -->
<!DOCTYPE svg PUBLIC "-//W3C//DTD SVG 1.1//EN" "http://www.w3.org/Graphics/SVG/1.1/DTD/svg11.dtd">
<svg version="1.1" id="Layer_1" xmlns="http://www.w3.org/2000/svg" xmlns:xlink="http://www.w3.org/1999/xlink" x="0px" y="0px"
	 width="50px" height="50px" viewBox="0 0 50 50" enable-background="new 0 0 50 50" xml:space="preserve">
<circle fill="none" stroke="#BF973F" stroke-linecap="round" stroke-linejoin="round" stroke-miterlimit="10" cx="25" cy="25" r="24.125"/>
<g>
	<path fill-rule="evenodd" clip-rule="evenodd" fill="#BF973F" d="M39.105,30.095c-0.175-0.01-0.343-0.103-0.45-0.292
		c-0.108-0.191-0.119-0.402,0.018-0.566c0.588-0.706,1.18-1.408,1.792-2.093c0.206-0.229,0.487-0.219,0.735-0.025
		c0.238,0.185,0.299,0.51,0.097,0.756c-0.577,0.699-1.174,1.382-1.769,2.066C39.435,30.049,39.296,30.098,39.105,30.095z"/>
	<path fill-rule="evenodd" clip-rule="evenodd" fill="#BF973F" d="M38.578,30.779c0.002,0.214-0.049,0.331-0.134,0.433
		c-0.188,0.226-0.371,0.457-0.572,0.67c-0.234,0.247-0.552,0.264-0.79,0.063c-0.237-0.2-0.274-0.521-0.066-0.788
		c0.194-0.25,0.405-0.488,0.625-0.717c0.174-0.182,0.401-0.188,0.62-0.091C38.472,30.444,38.568,30.628,38.578,30.779z"/>
	<path fill-rule="evenodd" clip-rule="evenodd" fill="#BF973F" d="M40.222,33.213c-2.263-0.012-4.526-0.002-6.789-0.006
		c-0.12,0-0.251,0.04-0.384-0.043c1.01-1.192,1.979-2.395,3.009-3.541c1.555-1.731,2.894-3.587,3.684-5.801
		c0.212-0.595,0.343-1.196,0.326-1.83c-0.021-0.798-0.299-1.544-0.465-2.313c-0.06-0.277-0.186-0.545-0.169-0.859
		c0.14,0.042,0.253,0.072,0.364,0.109c0.759,0.25,1.609-0.371,1.612-1.178c0.001-0.46-0.011-0.92,0.004-1.379
		c0.01-0.333-0.108-0.578-0.423-0.698c-0.722-0.277-1.29-0.757-1.797-1.325c-0.157-0.175-0.327-0.341-0.503-0.497
		c-0.633-0.563-1.594-0.615-2.243-0.102c-0.184,0.144-0.365,0.228-0.589,0.272c-0.867,0.171-1.456,0.682-1.764,1.507
		c-0.185,0.495-0.344,1-0.53,1.494c-0.095,0.25-0.094,0.48,0.027,0.714c0.381,0.738,0.547,1.519,0.461,2.348
		c-0.002,0.023-0.001,0.047,0,0.071c0.019,0.375,0.223,0.587,0.597,0.601c0.247,0.009,0.496-0.012,0.742,0.007
		c0.139,0.011,0.377-0.13,0.363,0.203c-0.01,0.249,0.038,0.462-0.339,0.497c-0.738,0.067-1.471,0.19-2.205,0.295
		c-1.188,0.168-1.979,1.077-1.987,2.281c-0.004,0.66-0.003,1.32,0.001,1.98c0,0.144-0.015,0.273-0.094,0.402
		c-0.381,0.621-0.754,1.248-1.186,1.965c-0.106-0.142-0.173-0.257-0.265-0.348c-1.698-1.703-3.399-3.402-5.099-5.104
		c-0.226-0.226-0.459-0.441-0.733-0.607c-1.368-0.827-3.066-0.471-4.035,0.873c-1.556,2.159-3.096,4.329-4.643,6.493
		c-0.103,0.144-0.209,0.276-0.355,0.386c-0.836,0.632-1.737,1.111-2.789,1.27c-0.243,0.036-0.482,0.104-0.72,0.171
		c-0.295,0.082-0.456,0.277-0.457,0.591c-0.001,0.295-0.01,0.59,0.003,0.884c0.007,0.17-0.044,0.224-0.216,0.218
		c-0.318-0.013-0.637-0.013-0.955,0c-1.133,0.044-1.918,1.144-1.584,2.209c0.232,0.739,0.892,1.182,1.773,1.182
		c10.079,0.001,20.157,0.001,30.235,0.001c0.083,0,0.166,0.003,0.248-0.003c0.621-0.046,1.1-0.333,1.403-0.877
		C42.396,34.586,41.564,33.22,40.222,33.213z M35.725,15.252c0,0.233,0,0.451,0,0.67C35.251,15.566,35.25,15.556,35.725,15.252z
		 M35.447,19.625c-0.139,0.013-0.293,0.04-0.264-0.196c0.066-0.542-0.06-1.052-0.307-1.53c-0.195-0.378-0.264-0.749,0.041-1.19
		c0.259,0.278,0.506,0.545,0.756,0.809c0.063,0.065,0.079,0.137,0.078,0.223c-0.002,0.565-0.012,1.131,0.004,1.696
		C35.763,19.715,35.575,19.613,35.447,19.625z M35.379,24.072c0.088-0.449,0.212-0.892,0.314-1.339
		c0.033-0.147,0.104-0.219,0.263-0.217c0.104,0.001,0.209-0.035,0.313-0.05c0.455-0.069,0.612-0.243,0.612-0.701
		c0.002-2.109,0.001-4.219,0.001-6.329c0-0.083,0.002-0.165,0-0.248c-0.007-0.272,0.094-0.486,0.352-0.597
		c0.276-0.119,0.528-0.07,0.744,0.145c0.358,0.358,0.723,0.711,1.074,1.076c0.207,0.215,0.428,0.404,0.711,0.507
		c0.392,0.143,0.663,0.356,0.515,0.764c0,0.151,0.003,0.233-0.001,0.316c-0.006,0.146,0.058,0.339-0.127,0.402
		c-0.176,0.059-0.333-0.04-0.463-0.169c-0.275-0.274-0.56-0.541-0.831-0.819c-0.232-0.239-0.482-0.397-0.81-0.201
		c-0.326,0.195-0.297,0.498-0.215,0.813c0.329,1.262,0.65,2.527,0.982,3.789c0.202,0.768,0.157,1.516-0.151,2.245
		c-0.302,0.714-0.593,1.433-0.955,2.12c-0.115,0.22-0.251,0.298-0.49,0.279c-0.269-0.021-0.54,0.009-0.805-0.075
		C35.688,25.553,35.232,24.818,35.379,24.072z M30.957,28.897c0.402-0.65,0.786-1.312,1.188-1.962
		c0.147-0.238,0.222-0.48,0.216-0.765c-0.015-0.695-0.008-1.39-0.004-2.085c0.004-0.705,0.37-1.112,1.072-1.208
		c0.358-0.049,0.717-0.101,1.103-0.156c-0.094,0.385-0.185,0.725-0.259,1.067c-0.296,1.377,0.57,2.996,2.508,3.209
		c-1.546,1.828-3.065,3.626-4.624,5.469c-0.065-0.351-0.109-0.648-0.178-0.939c-0.183-0.776-0.5-1.498-1.007-2.116
		C30.807,29.211,30.842,29.084,30.957,28.897z M16.253,30.12c1.511-2.102,3.004-4.216,4.523-6.313c0.7-0.966,1.99-1.067,2.837-0.228
		c2.05,2.032,4.085,4.078,6.125,6.121c0.773,0.775,1.127,1.743,1.271,2.807c0.095,0.704,0.103,0.703-0.605,0.703
		c-0.271,0-0.542,0-0.813,0c-0.118,0-0.24-0.021-0.354,0.003c-0.854,0.175-1.337-0.229-1.81-0.925
		c-1.509-2.218-3.098-4.381-4.656-6.564c-0.432-0.606-0.86-0.611-1.2,0.037c-0.938,1.792-2.151,3.36-3.671,4.694
		c-0.23,0.201-0.446,0.421-0.648,0.65c-0.141,0.16-0.229,0.136-0.359-0.008c-0.188-0.21-0.389-0.411-0.6-0.6
		C16.154,30.373,16.137,30.281,16.253,30.12z M26.691,33.203c-3.16,0-6.255,0-9.374,0c0.108-0.442,0.231-0.844,0.587-1.166
		c0.523-0.473,0.985-1.014,1.509-1.486c1.057-0.957,1.937-2.044,2.587-3.314c0.053-0.104,0.121-0.199,0.196-0.321
		C23.694,29.009,25.175,31.081,26.691,33.203z M12.148,32.486c0.256-0.084,0.519-0.152,0.784-0.197
		c0.673-0.116,1.264-0.398,1.814-0.8c0.546-0.397,0.559-0.38,1.024,0.086c0.042,0.041,0.083,0.083,0.125,0.125
		c0.552,0.551,0.543,0.548,0.278,1.303c-0.06,0.17-0.137,0.212-0.3,0.21c-0.612-0.008-1.224-0.003-1.835-0.003
		c-0.6,0-1.2,0.003-1.8-0.004c-0.095-0.001-0.283,0.077-0.249-0.127C12.024,32.879,11.817,32.595,12.148,32.486z M40.355,35.464
		c-0.102,0.021-0.211,0.009-0.317,0.009c-10.028,0.001-20.058,0.001-30.086,0c-0.095,0-0.19,0.007-0.283-0.005
		c-0.307-0.036-0.528-0.279-0.512-0.573c0.018-0.313,0.196-0.496,0.501-0.546c0.115-0.02,0.235-0.007,0.353-0.007
		c5.009,0,10.017,0,15.026,0c4.985,0,9.97,0,14.955,0c0.118,0,0.238-0.013,0.353,0.007c0.305,0.054,0.489,0.241,0.493,0.553
		C40.841,35.215,40.658,35.403,40.355,35.464z"/>
</g>
</svg>
