<?xml version="1.0" encoding="utf-8"?>
<!-- Generator: Adobe Illustrator 16.0.0, SVG Export Plug-In . SVG Version: 6.00 Build 0)  -->
<!DOCTYPE svg PUBLIC "-//W3C//DTD SVG 1.1//EN" "http://www.w3.org/Graphics/SVG/1.1/DTD/svg11.dtd">
<svg version="1.1" id="Layer_1" xmlns="http://www.w3.org/2000/svg" xmlns:xlink="http://www.w3.org/1999/xlink" x="0px" y="0px"
	 width="50px" height="50px" viewBox="0 0 50 50" enable-background="new 0 0 50 50" xml:space="preserve">
<circle fill="none" stroke="#BF973F" stroke-linecap="round" stroke-linejoin="round" stroke-miterlimit="10" cx="25" cy="25" r="24.125"/>
<g>
	<path fill-rule="evenodd" clip-rule="evenodd" fill="#BF973F" d="M24.982,38.719c-3.113,0-6.226,0.003-9.339-0.008
		c-0.208,0-0.438-0.063-0.619-0.166c-1.464-0.839-2.916-1.699-4.38-2.537c-0.256-0.147-0.344-0.321-0.343-0.609
		c0.008-3.356,0.008-6.712,0-10.068c0-0.302,0.094-0.483,0.359-0.635c1.464-0.838,2.917-1.697,4.38-2.537
		C15.203,22.064,15.409,22,15.595,22c6.271-0.008,12.542-0.008,18.811-0.001c0.178,0,0.375,0.055,0.527,0.143
		c1.473,0.846,2.936,1.709,4.408,2.555c0.248,0.143,0.358,0.308,0.357,0.603c-0.008,3.377-0.007,6.756-0.001,10.134
		c0.001,0.264-0.087,0.425-0.317,0.558c-1.49,0.857-2.974,1.731-4.465,2.588c-0.153,0.087-0.352,0.132-0.528,0.133
		C31.252,38.721,28.117,38.719,24.982,38.719z M26.807,38.101c2.489,0,4.954,0,7.428,0c0-3.314,0-6.607,0-9.91
		c-2.485,0-4.949,0-7.428,0C26.807,31.498,26.807,34.783,26.807,38.101z M11.219,25.084c0.777,0.453,1.52,0.88,2.254,1.319
		c0.165,0.1,0.284,0.092,0.445-0.004c1.063-0.628,2.13-1.251,3.204-1.863c0.154-0.087,0.35-0.143,0.526-0.144
		c4.902-0.007,9.804-0.007,14.706,0c0.176,0,0.372,0.057,0.526,0.144c1.073,0.611,2.137,1.24,3.208,1.855
		c0.092,0.052,0.246,0.105,0.318,0.064c0.786-0.439,1.561-0.897,2.373-1.372c-0.117-0.077-0.194-0.133-0.277-0.182
		c-1.239-0.722-2.476-1.448-3.721-2.158c-0.162-0.093-0.371-0.149-0.557-0.149c-6.15-0.007-12.3-0.007-18.45,0.001
		c-0.197,0-0.415,0.065-0.587,0.163c-1.226,0.7-2.443,1.416-3.663,2.126C11.434,24.94,11.346,25.002,11.219,25.084z M35.684,26.888
		c-0.061-0.05-0.098-0.089-0.143-0.115c-0.971-0.568-1.938-1.138-2.916-1.694c-0.125-0.071-0.293-0.091-0.441-0.091
		c-4.789-0.004-9.579-0.005-14.369,0.002c-0.176,0-0.372,0.054-0.525,0.141c-0.902,0.51-1.795,1.037-2.69,1.558
		c-0.092,0.054-0.179,0.115-0.295,0.19c0.338,0.199,0.635,0.391,0.948,0.551c0.149,0.076,0.329,0.135,0.495,0.136
		c6.169,0.006,12.339,0.006,18.508,0.003c0.118,0,0.252-0.004,0.351-0.057C34.964,27.319,35.312,27.106,35.684,26.888z
		 M39.098,25.609c-0.144,0.076-0.24,0.123-0.332,0.176c-1.2,0.698-2.396,1.404-3.603,2.091c-0.23,0.131-0.318,0.271-0.317,0.54
		c0.011,3.045,0.007,6.09,0.007,9.134c0,0.106,0,0.213,0,0.36c0.104-0.049,0.163-0.072,0.218-0.104
		c1.276-0.743,2.55-1.49,3.83-2.225c0.179-0.101,0.199-0.229,0.199-0.404c-0.004-1.842-0.002-3.685-0.002-5.526
		C39.098,28.327,39.098,27.004,39.098,25.609z M15.07,37.876c0.013-0.103,0.023-0.146,0.023-0.188
		c0.001-3.145,0.004-6.288-0.008-9.432c0-0.118-0.114-0.281-0.221-0.346c-1.231-0.733-2.471-1.451-3.708-2.171
		c-0.07-0.041-0.15-0.065-0.235-0.1c-0.008,0.066-0.016,0.1-0.016,0.132c-0.001,3.155,0.001,6.31-0.007,9.465
		c-0.001,0.211,0.107,0.286,0.255,0.372c1.163,0.674,2.323,1.353,3.485,2.028C14.767,37.713,14.9,37.783,15.07,37.876z
		 M18.513,28.183c-0.955,0-1.868,0-2.792,0c0,3.317,0,6.62,0,9.912c0.951,0,1.872,0,2.792,0
		C18.513,34.782,18.513,31.495,18.513,28.183z M26.173,32.796c0-0.861,0-1.703,0-2.539c-2.355,0-4.687,0-7.026,0
		c0,0.857,0,1.689,0,2.539C21.492,32.796,23.816,32.796,26.173,32.796z M19.146,35.924c2.35,0,4.683,0,7.023,0
		c0-0.844,0-1.673,0-2.499c-2.353,0-4.678,0-7.023,0C19.146,34.262,19.146,35.083,19.146,35.924z M26.186,36.562
		c-2.365,0-4.695,0-7.04,0c0,0.524,0,1.026,0,1.534c2.359,0,4.698,0,7.04,0C26.186,37.575,26.186,37.08,26.186,36.562z M26.18,29.62
		c0-0.484,0-0.951,0-1.436c-2.35,0-4.682,0-7.033,0c0,0.486,0,0.953,0,1.436C21.499,29.62,23.831,29.62,26.18,29.62z"/>
	<path fill-rule="evenodd" clip-rule="evenodd" fill="#BF973F" d="M27.156,20.166c-0.044-0.05-0.204-0.15-0.233-0.28
		c-0.048-0.212,0.12-0.294,0.324-0.317c0.592-0.068,1.005-0.413,1.122-0.917c0.124-0.539-0.089-1.007-0.609-1.343
		c-0.67-0.432-0.992-1.197-0.818-1.944c0.171-0.738,0.789-1.287,1.554-1.381c0.218-0.026,0.446-0.045,0.484,0.247
		c0.036,0.273-0.168,0.311-0.381,0.341c-0.573,0.083-0.973,0.435-1.075,0.931c-0.114,0.547,0.101,1.011,0.623,1.341
		c0.688,0.437,1.001,1.241,0.78,2.009C28.711,19.604,28.01,20.165,27.156,20.166z"/>
	<path fill-rule="evenodd" clip-rule="evenodd" fill="#BF973F" d="M26.057,15.568c0.007,1.045-0.734,1.846-1.671,1.908
		c-0.208,0.014-0.396-0.021-0.423-0.258c-0.027-0.241,0.15-0.306,0.357-0.337c0.623-0.093,0.995-0.42,1.115-0.963
		c0.112-0.503-0.112-0.969-0.628-1.304c-0.63-0.408-0.955-1.12-0.828-1.814c0.139-0.763,0.668-1.319,1.417-1.481
		c0.106-0.023,0.233-0.06,0.324-0.023c0.125,0.05,0.223,0.164,0.332,0.251c-0.099,0.111-0.178,0.262-0.301,0.323
		c-0.229,0.115-0.522,0.126-0.725,0.271c-0.694,0.496-0.63,1.516,0.115,1.976C25.727,14.479,26.017,14.995,26.057,15.568z"/>
	<path fill-rule="evenodd" clip-rule="evenodd" fill="#BF973F" d="M22.83,13.144c0.046,0.048,0.216,0.143,0.246,0.271
		c0.054,0.233-0.126,0.308-0.343,0.331c-0.561,0.059-0.98,0.412-1.099,0.904c-0.13,0.539,0.085,1.033,0.592,1.354
		c0.679,0.432,1.004,1.184,0.835,1.935c-0.17,0.752-0.792,1.304-1.577,1.398c-0.208,0.025-0.421,0.028-0.463-0.239
		c-0.042-0.269,0.146-0.32,0.368-0.351c0.578-0.081,0.975-0.427,1.085-0.922c0.121-0.539-0.093-1.008-0.614-1.342
		c-0.692-0.445-1.007-1.245-0.792-2.009C21.279,13.723,21.971,13.161,22.83,13.144z"/>
</g>
</svg>
