<?xml version="1.0" encoding="utf-8"?>
<!-- Generator: Adobe Illustrator 16.0.0, SVG Export Plug-In . SVG Version: 6.00 Build 0)  -->
<!DOCTYPE svg PUBLIC "-//W3C//DTD SVG 1.1//EN" "http://www.w3.org/Graphics/SVG/1.1/DTD/svg11.dtd">
<svg version="1.1" id="Layer_1" xmlns="http://www.w3.org/2000/svg" xmlns:xlink="http://www.w3.org/1999/xlink" x="0px" y="0px"
	 width="50px" height="50px" viewBox="0 0 50 50" enable-background="new 0 0 50 50" xml:space="preserve">
<circle fill="none" stroke="#BF973F" stroke-linecap="round" stroke-linejoin="round" stroke-miterlimit="10" cx="25" cy="25" r="24.125"/>
<g>
	<path fill-rule="evenodd" clip-rule="evenodd" fill="#BF973F" d="M16.551,14.169c0.255,0.122,0.536,0.209,0.758,0.375
		c0.347,0.26,0.482,0.651,0.491,1.081c0.005,0.208,0.001,0.416,0.001,0.653c0.077,0,0.145,0,0.213,0c1.185,0,2.37-0.002,3.555,0.001
		c0.553,0.001,0.989,0.297,1.155,0.769c0.278,0.79-0.272,1.563-1.131,1.572c-0.905,0.009-1.811,0.002-2.715,0.002
		c-0.351,0-0.701,0-1.067,0c-0.003,0.075-0.009,0.138-0.009,0.2c0,2.331,0.001,4.662-0.003,6.992c0,0.134,0.034,0.208,0.161,0.268
		c0.364,0.171,0.723,0.355,1.082,0.54c0.165,0.084,0.258,0.222,0.231,0.412c-0.026,0.179-0.137,0.305-0.316,0.323
		c-0.102,0.011-0.218-0.024-0.315-0.069c-0.275-0.126-0.544-0.267-0.839-0.414c0,0.5-0.005,0.968,0.007,1.436
		c0.001,0.053,0.096,0.124,0.162,0.151c1.218,0.487,2.438,0.974,3.661,1.451c0.222,0.087,0.363,0.221,0.453,0.443
		c0.387,0.951,0.79,1.896,1.177,2.847c0.059,0.145,0.126,0.207,0.283,0.189c0.133-0.015,0.27-0.003,0.428-0.003
		c-0.197-0.574-0.386-1.127-0.575-1.679c-0.263-0.769-0.522-1.539-0.792-2.305c-0.031-0.086-0.11-0.175-0.19-0.219
		c-0.378-0.202-0.767-0.385-1.148-0.582c-0.199-0.104-0.27-0.259-0.228-0.448c0.041-0.183,0.164-0.281,0.342-0.293
		c0.086-0.006,0.182,0.022,0.26,0.061c0.45,0.219,0.902,0.436,1.34,0.677c0.12,0.065,0.238,0.196,0.282,0.323
		c0.545,1.558,1.077,3.12,1.608,4.683c0.109,0.322-0.064,0.559-0.405,0.563c-0.429,0.004-0.859-0.006-1.289,0.003
		c-0.249,0.005-0.4-0.101-0.494-0.328c-0.416-1.009-0.835-2.018-1.26-3.023c-0.037-0.085-0.113-0.182-0.194-0.215
		c-1.103-0.447-2.208-0.884-3.314-1.322c-0.029-0.012-0.059-0.021-0.104-0.036c0,0.862,0,1.71,0,2.579c0.315,0,0.625-0.001,0.936,0
		c1.043,0.003,1.843,0.686,2.006,1.711c0.071,0.443-0.092,0.633-0.543,0.633c-3.535,0-7.07,0-10.605,0
		c-0.45,0-0.611-0.19-0.539-0.637c0.166-1.026,0.964-1.704,2.009-1.707c0.305-0.001,0.61,0,0.93,0c0-1.901,0-3.791,0-5.704
		c-0.416,0-0.83,0.004-1.245-0.001c-0.531-0.006-0.957-0.292-1.128-0.749c-0.291-0.774,0.246-1.566,1.086-1.591
		c0.422-0.013,0.846-0.002,1.285-0.002c0-0.985,0-1.964,0-2.97c-0.063,0-0.132,0-0.201,0c-1.179,0-2.357,0.002-3.535-0.001
		c-0.566-0.001-1.005-0.293-1.171-0.771c-0.276-0.793,0.276-1.562,1.137-1.569c0.97-0.008,1.94-0.002,2.91-0.002
		c0.285,0,0.57,0,0.877,0c0-0.085,0-0.154,0-0.224c0-0.781,0.023-1.563-0.006-2.344c-0.03-0.808,0.289-1.508,1.256-1.729
		C14.364,14.169,15.458,14.169,16.551,14.169z M17.006,31.817c0-4.406,0-8.797,0-13.185c-0.938-0.069-1.407-0.447-1.428-1.149
		c-0.009-0.297,0.088-0.563,0.281-0.791c0.3-0.355,0.705-0.436,1.161-0.415c0-0.21,0.001-0.403,0-0.597
		c-0.003-0.465-0.264-0.729-0.725-0.73c-0.925-0.002-1.849-0.002-2.773,0c-0.452,0.002-0.719,0.267-0.72,0.715
		c-0.003,0.885-0.001,1.771,0,2.655c0,0.044,0.006,0.088,0.009,0.129c0.976,0.114,1.405,0.459,1.432,1.147
		c0.011,0.275-0.072,0.526-0.239,0.747c-0.3,0.398-0.728,0.488-1.187,0.47c0,1.001,0,1.979,0,2.965c0.275,0,0.536-0.005,0.796,0.002
		c0.441,0.011,0.795,0.191,1.021,0.577c0.456,0.777-0.072,1.723-0.983,1.762c-0.277,0.012-0.555,0.002-0.836,0.002
		c0,0.897,0,1.771,0,2.657c0.083,0,0.154,0,0.225,0c0.879,0,1.757,0,2.636,0.002c0.077,0,0.157,0.002,0.232,0.021
		c0.173,0.044,0.291,0.202,0.29,0.372c-0.001,0.171-0.12,0.325-0.295,0.366c-0.075,0.019-0.155,0.02-0.232,0.021
		c-0.885,0.001-1.771,0-2.656,0c-0.068,0-0.137,0-0.202,0c0,0.771,0,1.51,0,2.258C14.213,31.817,15.604,31.817,17.006,31.817z
		 M9.922,33.377c3.332,0,6.653,0,9.981,0c-0.008-0.031-0.01-0.05-0.018-0.066c-0.23-0.49-0.626-0.704-1.157-0.704
		c-2.512,0.001-5.023,0.001-7.535,0.001c-0.091,0-0.182-0.002-0.273,0.004C10.46,32.645,10.069,32.941,9.922,33.377z M19.188,17.06
		c-0.774,0-1.549,0-2.324,0.001c-0.316,0-0.505,0.146-0.505,0.39s0.188,0.389,0.505,0.391c0.013,0,0.026,0,0.039,0
		c1.523,0,3.046,0,4.569-0.001c0.096-0.001,0.197-0.004,0.288-0.033c0.166-0.054,0.253-0.187,0.253-0.356s-0.087-0.302-0.253-0.356
		c-0.084-0.027-0.179-0.032-0.269-0.032C20.724,17.059,19.956,17.06,19.188,17.06z M10.625,20.028c0.794,0,1.588,0.002,2.382-0.001
		c0.271-0.001,0.449-0.156,0.455-0.382c0.005-0.231-0.179-0.392-0.458-0.398c-0.026,0-0.052,0-0.078,0c-1.529,0-3.059,0-4.589,0.001
		c-0.09,0.001-0.184,0.005-0.269,0.03C7.9,19.33,7.811,19.46,7.808,19.63c-0.003,0.179,0.089,0.313,0.264,0.368
		c0.079,0.025,0.167,0.029,0.25,0.029C9.089,20.029,9.857,20.028,10.625,20.028z M12.16,25.341c0.469,0,0.938,0.003,1.406-0.001
		c0.275-0.002,0.445-0.151,0.448-0.384c0.004-0.232-0.166-0.394-0.436-0.395c-0.938-0.004-1.875-0.007-2.812,0.005
		c-0.116,0.002-0.271,0.064-0.334,0.152c-0.068,0.093-0.087,0.259-0.059,0.376c0.042,0.174,0.203,0.244,0.38,0.245
		C11.223,25.342,11.692,25.341,12.16,25.341z"/>
	<path fill-rule="evenodd" clip-rule="evenodd" fill="#BF973F" d="M20.096,27.97c-0.211-0.003-0.384-0.18-0.38-0.39
		c0.004-0.212,0.179-0.379,0.393-0.375c0.211,0.004,0.386,0.182,0.382,0.388C20.486,27.801,20.306,27.973,20.096,27.97z"/>
	<path fill-rule="evenodd" clip-rule="evenodd" fill="#BF973F" d="M16.2,23.395c0,0.501,0.004,1.003-0.001,1.503
		c-0.004,0.33-0.278,0.528-0.546,0.403c-0.158-0.073-0.231-0.208-0.231-0.377c-0.002-1.021-0.004-2.044,0-3.065
		c0.001-0.252,0.175-0.425,0.395-0.421c0.219,0.005,0.38,0.179,0.382,0.434C16.203,22.379,16.2,22.887,16.2,23.395z"/>
	<path fill-rule="evenodd" clip-rule="evenodd" fill="#BF973F" d="M15.808,20.724c-0.203-0.002-0.387-0.188-0.386-0.391
		c0.001-0.208,0.18-0.385,0.389-0.383c0.209,0.001,0.387,0.179,0.386,0.386C16.195,20.539,16.009,20.725,15.808,20.724z"/>
</g>
<g>
	<path fill-rule="evenodd" clip-rule="evenodd" fill="#BF973F" d="M43.982,19.8c-0.034,0.151-0.052,0.308-0.104,0.452
		c-0.295,0.79-0.846,1.325-1.642,1.606c-0.041,0.016-0.084,0.028-0.141,0.046c0.021,0.055,0.035,0.103,0.057,0.146
		c0.426,0.876,0.291,1.896-0.381,2.59c-0.807,0.831-1.631,1.646-2.461,2.455c-0.491,0.479-1.14,0.466-1.641-0.009
		c-0.093-0.087-0.166-0.194-0.248-0.293c-0.021,0.012-0.043,0.023-0.064,0.035c-0.387,1.747-0.775,3.495-1.154,5.203
		c0.328,0.138,0.661,0.227,0.937,0.403c0.623,0.401,0.899,1.007,0.871,1.745c-0.01,0.246-0.174,0.379-0.45,0.382
		c-0.463,0.004-0.925,0.002-1.387,0.002c-0.593,0-1.185,0.001-1.777-0.001c-0.676-0.002-1.078-0.407-1.078-1.085
		c-0.001-2.22-0.002-4.439,0.002-6.659c0.001-0.135-0.039-0.229-0.135-0.322c-0.618-0.606-1.231-1.219-1.844-1.829
		c-0.255-0.254-0.265-0.418-0.032-0.706c-0.071-0.051-0.142-0.104-0.213-0.152c-0.467-0.321-0.934-0.642-1.399-0.963
		c-0.063-0.045-0.128-0.092-0.18-0.148c-0.124-0.135-0.135-0.316-0.035-0.467c0.096-0.145,0.281-0.212,0.445-0.149
		c0.084,0.032,0.161,0.084,0.236,0.136c0.628,0.429,1.255,0.86,1.891,1.296c0.546-0.343,1.091-0.685,1.665-1.045
		c-2.09-1.146-4.16-2.282-6.221-3.412c-0.244,0.245-0.478,0.479-0.728,0.729c0.321,0.228,0.646,0.458,0.971,0.691
		c0.074,0.053,0.149,0.106,0.212,0.172c0.126,0.134,0.134,0.342,0.029,0.484c-0.104,0.141-0.287,0.195-0.453,0.128
		c-0.065-0.026-0.127-0.065-0.185-0.106c-0.441-0.312-0.918-0.585-1.312-0.948c-0.454-0.42-0.987-0.705-1.492-1.04
		c-0.298-0.198-0.457-0.484-0.561-0.813c0-0.13,0-0.261,0-0.391c0.074-0.164,0.124-0.345,0.225-0.488
		c0.394-0.556,1.044-0.663,1.656-0.298c0.652,0.39,1.299,0.789,1.962,1.158c1.385,0.772,2.779,1.527,4.171,2.289
		c0.056,0.031,0.114,0.059,0.172,0.088c-0.229-0.248-0.452-0.479-0.164-0.809c-0.023-0.031-0.033-0.049-0.046-0.063
		c-0.233-0.235-0.441-0.466-0.823-0.515c-0.467-0.06-0.732-0.472-1.02-0.803c-0.33-0.381-0.337-0.985-0.01-1.369
		c0.261-0.306,0.549-0.594,0.853-0.855c0.391-0.337,0.988-0.327,1.387,0.004c0.199,0.166,0.379,0.356,0.557,0.545
		c0.191,0.201,0.278,0.449,0.297,0.725c0.004,0.06,0.026,0.129,0.064,0.173c0.136,0.157,0.282,0.306,0.418,0.45
		c0.372-0.211,0.467-0.196,0.755,0.091c0.313,0.313,0.632,0.619,0.936,0.941c0.177,0.187,0.362,0.22,0.599,0.138
		c0.516-0.18,1.032-0.353,1.554-0.515c0.716-0.223,1.359-0.079,1.924,0.415c0.037,0.032,0.076,0.062,0.136,0.108
		c0.122-0.58,0.475-0.982,0.88-1.348c1.138-1.026,3.015-0.489,3.435,0.984c0.037,0.13,0.058,0.265,0.086,0.397
		C43.982,19.539,43.982,19.67,43.982,19.8z M37.167,24.541c0.02-0.013,0.027-0.016,0.029-0.02c0.652-1.438,1.305-2.874,1.952-4.313
		c0.018-0.041,0.01-0.116-0.019-0.151c-0.355-0.463-0.867-0.623-1.423-0.444c-0.477,0.153-0.955,0.298-1.423,0.474
		c-0.604,0.228-1.103,0.107-1.533-0.367c-0.226-0.248-0.473-0.478-0.691-0.697c-0.416,0.412-0.816,0.808-1.223,1.209
		c0.452,0.453,0.91,0.915,1.374,1.371c0.036,0.035,0.115,0.053,0.168,0.042c0.28-0.055,0.559-0.119,0.838-0.183
		c0.354-0.079,0.709-0.162,1.064-0.239c0.273-0.061,0.48,0.054,0.535,0.286c0.052,0.218-0.09,0.411-0.351,0.477
		c-0.063,0.017-0.127,0.028-0.191,0.043c-0.434,0.099-0.868,0.196-1.294,0.293C35.714,23.065,36.438,23.801,37.167,24.541z
		 M35.378,27.58c0.124-0.197,0.241-0.383,0.363-0.578c-0.345-0.345-0.688-0.683-1.024-1.025c-0.196-0.199-0.207-0.444-0.039-0.604
		c0.164-0.157,0.394-0.143,0.591,0.049c0.261,0.255,0.516,0.516,0.774,0.772c0.039,0.038,0.083,0.071,0.135,0.115
		c0.217-0.348,0.423-0.676,0.602-0.962c-0.799-0.809-1.576-1.595-2.361-2.39c-0.743,0.467-1.494,0.938-2.225,1.397
		C33.262,25.437,34.313,26.501,35.378,27.58z M34.111,32.095c0.364,0,0.72-0.008,1.075,0.004c0.151,0.005,0.211-0.039,0.244-0.192
		c0.237-1.098,0.485-2.193,0.729-3.29c0.083-0.374,0.164-0.75,0.246-1.125c-0.063,0.036-0.096,0.083-0.126,0.132
		c-0.159,0.252-0.314,0.508-0.479,0.758c-0.168,0.256-0.416,0.282-0.646,0.079c-0.063-0.057-0.121-0.118-0.18-0.179
		c-0.276-0.28-0.552-0.563-0.863-0.88C34.111,28.999,34.111,30.535,34.111,32.095z M41.937,18.278
		c-0.662,0.006-1.046,0.356-1.375,0.785c-0.316,0.41-0.339,1.008-0.045,1.466c0.295,0.46,0.728,0.672,1.277,0.62
		c0.484-0.047,0.813-0.349,1.099-0.705c0.341-0.423,0.401-0.898,0.178-1.389C42.838,18.548,42.414,18.306,41.937,18.278z
		 M39.233,24.747c0.227,0.244,0.427,0.462,0.658,0.713c0.398-0.412,0.798-0.822,1.195-1.234c0.068-0.069,0.133-0.144,0.194-0.219
		c0.394-0.479,0.433-1.218,0.099-1.735c-0.057-0.088-0.107-0.12-0.218-0.098c-0.702,0.14-1.405,0.266-2.106,0.407
		c-0.067,0.013-0.146,0.083-0.177,0.148c-0.167,0.345-0.32,0.696-0.479,1.046c-0.073,0.164-0.146,0.329-0.214,0.485
		c0.292,0.112,0.492,0.012,0.669-0.208c0.135-0.166,0.295-0.313,0.456-0.455c0.215-0.188,0.513-0.136,0.622,0.105
		c0.083,0.182,0.033,0.344-0.105,0.479C39.632,24.371,39.434,24.558,39.233,24.747z M34.101,32.88c0,0.201-0.001,0.381,0,0.561
		c0.001,0.289,0.051,0.34,0.34,0.34c0.857,0,1.714,0,2.571,0c0.056,0,0.11-0.008,0.167-0.012c-0.085-0.473-0.529-0.863-1.02-0.88
		c-0.486-0.017-0.974-0.007-1.461-0.009C34.506,32.88,34.313,32.88,34.101,32.88z M32.434,17.632
		c-0.034-0.088-0.044-0.168-0.088-0.217c-0.162-0.176-0.326-0.353-0.509-0.507c-0.145-0.121-0.312-0.083-0.442,0.04
		c-0.217,0.204-0.431,0.414-0.633,0.633c-0.153,0.165-0.142,0.351,0.017,0.521c0.109,0.119,0.227,0.232,0.343,0.345
		c0.209,0.201,0.388,0.204,0.594,0.005c0.187-0.181,0.373-0.362,0.549-0.553C32.335,17.822,32.379,17.719,32.434,17.632z
		 M38.288,25.047c-0.089,0.042-0.17,0.061-0.225,0.109c-0.136,0.119-0.269,0.246-0.387,0.383c-0.116,0.136-0.107,0.323,0.021,0.462
		c0.176,0.19,0.359,0.376,0.551,0.551c0.16,0.148,0.339,0.142,0.505-0.008c0.102-0.091,0.193-0.192,0.288-0.291
		c0.188-0.196,0.192-0.365,0.007-0.561c-0.161-0.17-0.324-0.338-0.498-0.494C38.479,25.133,38.378,25.098,38.288,25.047z
		 M26.733,18.646c-0.45-0.281-0.889-0.56-1.333-0.829c-0.202-0.121-0.43-0.071-0.557,0.103c-0.125,0.171-0.108,0.419,0.073,0.541
		c0.406,0.275,0.828,0.529,1.211,0.772C26.339,19.028,26.529,18.845,26.733,18.646z M40.333,21.532
		c-0.204-0.243-0.396-0.474-0.596-0.712c-0.132,0.293-0.263,0.583-0.407,0.905C39.688,21.656,40.011,21.595,40.333,21.532z
		 M32.296,19.004c0.099,0.105,0.193,0.207,0.272,0.292c0.184-0.176,0.374-0.357,0.555-0.529c-0.094-0.106-0.186-0.212-0.273-0.313
		C32.652,18.649,32.465,18.835,32.296,19.004z"/>
	<path fill-rule="evenodd" clip-rule="evenodd" fill="#BF973F" d="M29.732,24.329c0.001,0.301-0.29,0.482-0.561,0.348
		c-0.052-0.026-0.101-0.061-0.147-0.095c-1-0.704-1.999-1.41-2.999-2.115c-0.137-0.096-0.258-0.198-0.259-0.386
		c-0.002-0.272,0.252-0.46,0.508-0.367c0.065,0.023,0.128,0.063,0.187,0.104c1.011,0.711,2.021,1.424,3.031,2.136
		C29.625,24.046,29.736,24.149,29.732,24.329z"/>
	<path fill-rule="evenodd" clip-rule="evenodd" fill="#BF973F" d="M29.152,21.679c-0.003,0.21-0.178,0.384-0.385,0.384
		c-0.214,0-0.391-0.187-0.383-0.405c0.007-0.209,0.186-0.379,0.394-0.372C28.988,21.291,29.155,21.467,29.152,21.679z"/>
	<path fill-rule="evenodd" clip-rule="evenodd" fill="#BF973F" d="M34.247,24.563c0,0.201-0.183,0.386-0.385,0.39
		c-0.204,0.003-0.386-0.173-0.39-0.379c-0.006-0.219,0.173-0.4,0.389-0.397C34.066,24.179,34.246,24.357,34.247,24.563z"/>
</g>
</svg>
