<?xml version="1.0" encoding="utf-8"?>
<!-- Generator: Adobe Illustrator 16.0.0, SVG Export Plug-In . SVG Version: 6.00 Build 0)  -->
<!DOCTYPE svg PUBLIC "-//W3C//DTD SVG 1.1//EN" "http://www.w3.org/Graphics/SVG/1.1/DTD/svg11.dtd">
<svg version="1.1" id="Layer_1" xmlns="http://www.w3.org/2000/svg" xmlns:xlink="http://www.w3.org/1999/xlink" x="0px" y="0px"
	 width="50px" height="50px" viewBox="0 0 50 50" enable-background="new 0 0 50 50" xml:space="preserve">
<circle fill="none" stroke="#BF973F" stroke-linecap="round" stroke-linejoin="round" stroke-miterlimit="10" cx="25" cy="25" r="24.125"/>
<g>
	<path fill-rule="evenodd" clip-rule="evenodd" fill="#BF973F" d="M26.439,26.45c0.327-0.025,0.635-0.021,0.931-0.076
		c1.071-0.197,1.865-1.118,1.906-2.205c0.019-0.505,0.003-1.013,0.003-1.539c0.107-0.006,0.189-0.015,0.271-0.015
		c1.152-0.001,2.304-0.002,3.455,0c1.443,0.002,2.464,1.019,2.471,2.458c0.002,0.389,0.008,0.779-0.005,1.168
		c-0.003,0.084-0.051,0.205-0.115,0.243c-1.428,0.826-2.175,2.063-2.261,3.704c-0.002,0.032-0.012,0.063-0.009,0.047
		c-1.126,0-2.232,0-3.34,0c-1.098,0-2.196,0-3.307,0C26.439,28.96,26.439,27.711,26.439,26.45z"/>
	<path fill-rule="evenodd" clip-rule="evenodd" fill="#BF973F" d="M31.195,21.661c0-0.312,0-0.59,0-0.868
		c0-1.092,0.001-2.185,0-3.277c0-0.453-0.156-0.605-0.61-0.612c-0.364-0.006-0.73,0.01-1.09-0.038
		c-0.605-0.081-1.129-0.621-1.139-1.224c-0.023-1.472-0.008-2.945-0.008-4.439c0.304,0,0.602,0,0.936,0c0,0.1,0,0.198,0,0.297
		c0,1.27-0.001,2.54,0,3.81c0,0.483,0.158,0.641,0.639,0.641c2.438,0,4.877,0,7.316,0c0.466,0,0.62-0.157,0.62-0.627
		c0-1.279,0-2.558,0-3.836c0-0.091,0-0.183,0-0.29c0.323,0,0.623,0,0.945,0c0.005,0.084,0.013,0.166,0.013,0.247
		c0.001,1.304,0.001,2.608,0,3.912c-0.001,0.942-0.596,1.541-1.535,1.548c-0.246,0.001-0.491-0.001-0.736,0
		c-0.427,0.003-0.584,0.156-0.585,0.58c-0.001,1.719,0,3.438,0,5.157c0,0.176,0,0.353,0,0.588c-0.076-0.085-0.12-0.126-0.156-0.174
		c-0.685-0.917-1.604-1.378-2.744-1.394C32.451,21.654,31.843,21.661,31.195,21.661z"/>
	<path fill-rule="evenodd" clip-rule="evenodd" fill="#BF973F" d="M27.385,19.772c0.325,0,0.618,0,0.954,0c0,0.093,0,0.182,0,0.271
		c0,1.287,0.001,2.573-0.001,3.86c-0.001,0.983-0.58,1.566-1.558,1.569c-0.229,0-0.457-0.001-0.686,0
		c-0.461,0.002-0.621,0.165-0.622,0.633c-0.001,1.354,0,2.709,0,4.063c0,0.093,0,0.186,0,0.314c-0.902-0.429-1.69-0.285-2.377,0.396
		c-0.694-0.675-1.475-0.829-2.379-0.394c0-0.121,0-0.212,0-0.303c0-1.329,0-2.658,0-3.987c0-0.6-0.125-0.723-0.735-0.723
		c-0.229,0-0.457,0.003-0.686-0.001c-0.798-0.017-1.413-0.557-1.431-1.351c-0.032-1.421-0.01-2.844-0.009-4.266
		c0-0.023,0.016-0.047,0.027-0.081c0.294,0,0.587,0,0.922,0c0,0.088,0,0.176,0,0.265c0,1.287,0,2.573,0,3.86
		c0,0.464,0.162,0.627,0.626,0.628c2.447,0.001,4.893,0.001,7.339,0c0.448,0,0.615-0.169,0.615-0.614c0.001-1.278,0-2.556,0-3.834
		C27.385,19.985,27.385,19.893,27.385,19.772z"/>
	<path fill-rule="evenodd" clip-rule="evenodd" fill="#BF973F" d="M26.434,35.945c0-0.638,0-1.246,0-1.88
		c0.074-0.006,0.146-0.018,0.219-0.018c3.715-0.001,7.429-0.001,11.144,0c0.521,0.001,0.891,0.288,0.998,0.765
		c0.093,0.41-0.113,0.855-0.506,1.035c-0.148,0.068-0.325,0.107-0.488,0.107c-3.724,0.006-7.446,0.005-11.17,0.004
		C26.573,35.959,26.515,35.951,26.434,35.945z"/>
	<path fill-rule="evenodd" clip-rule="evenodd" fill="#BF973F" d="M16.906,22.634c0,0.436,0,0.858,0,1.28
		c0.003,1.515,1,2.51,2.515,2.512c0.101,0,0.202,0,0.322,0c0,1.271,0,2.526,0,3.824c-0.939,0-1.873,0-2.814,0
		c-0.045-0.299-0.073-0.636-0.149-0.962c-0.285-1.209-0.979-2.122-2.051-2.743c-0.154-0.089-0.216-0.178-0.208-0.353
		c0.027-0.574-0.024-1.16,0.074-1.721C14.782,23.396,15.844,22.575,16.906,22.634z"/>
	<path fill-rule="evenodd" clip-rule="evenodd" fill="#BF973F" d="M36.906,33.078c-0.964,0-1.897,0-2.819,0
		c-0.017-0.021-0.026-0.028-0.026-0.034c0.008-1.091-0.055-2.188,0.044-3.27c0.148-1.628,1.614-2.864,3.255-2.867
		c0.786-0.001,1.42,0.591,1.456,1.362c0.037,0.765-0.534,1.406-1.328,1.492c-0.47,0.052-0.581,0.174-0.581,0.645
		c-0.001,0.796,0,1.591,0,2.387C36.906,32.884,36.906,32.975,36.906,33.078z"/>
	<path fill-rule="evenodd" clip-rule="evenodd" fill="#BF973F" d="M15.952,33.082c-0.958,0-1.887,0-2.844,0
		c-0.004-0.093-0.012-0.182-0.012-0.271c-0.001-0.812,0.001-1.624-0.001-2.437c-0.001-0.433-0.128-0.567-0.564-0.61
		c-0.816-0.08-1.401-0.743-1.344-1.526c0.056-0.791,0.719-1.362,1.538-1.327c1.814,0.075,3.211,1.51,3.227,3.324
		C15.959,31.173,15.952,32.111,15.952,33.082z"/>
	<path fill-rule="evenodd" clip-rule="evenodd" fill="#BF973F" d="M19.749,34.048c0,0.653,0,1.268,0,1.895
		c-0.069,0.006-0.126,0.017-0.184,0.017c-2.453,0.001-4.906,0.002-7.359-0.001c-0.476,0-0.831-0.244-0.968-0.641
		c-0.215-0.624,0.232-1.256,0.909-1.268c0.625-0.01,1.252-0.002,1.878-0.002c1.802-0.001,3.604,0,5.406,0
		C19.531,34.048,19.63,34.048,19.749,34.048z"/>
	<path fill-rule="evenodd" clip-rule="evenodd" fill="#BF973F" d="M23.574,35.002c0-0.932-0.001-1.862,0.001-2.793
		c0.001-0.594,0.387-1.009,0.937-1.014c0.562-0.005,0.958,0.407,0.96,1.016c0.003,1.861,0.003,3.724,0,5.586
		c-0.001,0.602-0.41,1.027-0.961,1.019c-0.543-0.009-0.935-0.433-0.936-1.021C23.572,36.864,23.574,35.933,23.574,35.002z"/>
	<path fill-rule="evenodd" clip-rule="evenodd" fill="#BF973F" d="M20.719,35.01c0-0.965-0.007-1.929,0.003-2.895
		c0.005-0.481,0.366-0.865,0.823-0.915c0.485-0.054,0.914,0.233,1.039,0.701c0.023,0.089,0.031,0.184,0.031,0.276
		c0.002,1.887,0.003,3.774,0,5.661c0,0.509-0.34,0.897-0.828,0.97c-0.438,0.064-0.891-0.219-1.023-0.655
		c-0.038-0.127-0.044-0.267-0.045-0.401c-0.003-0.913-0.002-1.828-0.002-2.742C20.717,35.01,20.718,35.01,20.719,35.01z"/>
	<path fill-rule="evenodd" clip-rule="evenodd" fill="#BF973F" d="M26.437,33.074c0-0.627,0-1.233,0-1.88c0.094,0,0.183,0,0.272,0
		c1.921,0,3.842,0,5.764,0.001c0.475,0,0.62,0.146,0.622,0.62c0.001,0.413,0,0.826,0,1.259
		C30.87,33.074,28.666,33.074,26.437,33.074z"/>
	<path fill-rule="evenodd" clip-rule="evenodd" fill="#BF973F" d="M16.914,33.081c0-0.508-0.014-0.997,0.006-1.485
		c0.009-0.239,0.183-0.391,0.421-0.395c0.794-0.011,1.59-0.004,2.404-0.004c0,0.631,0,1.25,0,1.884
		C18.806,33.081,17.878,33.081,16.914,33.081z"/>
	<path fill-rule="evenodd" clip-rule="evenodd" fill="#BF973F" d="M34.517,12.615c0,0.194,0.017,0.391-0.003,0.583
		c-0.051,0.503-0.467,0.853-0.974,0.838c-0.498-0.015-0.898-0.403-0.914-0.906c-0.012-0.347-0.013-0.694,0-1.041
		c0.018-0.495,0.427-0.89,0.919-0.907c0.494-0.017,0.919,0.348,0.969,0.85C34.533,12.225,34.517,12.421,34.517,12.615z"/>
	<path fill-rule="evenodd" clip-rule="evenodd" fill="#BF973F" d="M24.042,21.202c0,0.161,0.004,0.321,0,0.482
		c-0.017,0.531-0.421,0.928-0.941,0.93c-0.522,0.002-0.936-0.393-0.951-0.919c-0.009-0.338-0.009-0.677,0-1.015
		c0.015-0.527,0.429-0.92,0.952-0.917c0.511,0.003,0.917,0.393,0.939,0.906C24.047,20.846,24.042,21.024,24.042,21.202z"/>
	<path fill-rule="evenodd" clip-rule="evenodd" fill="#BF973F" d="M15.939,38.806c-0.634,0-1.248,0-1.899,0c0-0.417,0-0.827,0-1.239
		c0-0.661,0-0.662,0.652-0.661c0.397,0.001,0.794,0.005,1.19,0.009c0.015,0,0.029,0.015,0.057,0.028
		C15.939,37.55,15.939,38.164,15.939,38.806z"/>
	<path fill-rule="evenodd" clip-rule="evenodd" fill="#BF973F" d="M34.06,38.804c0-0.633,0-1.247,0-1.898
		c0.289,0,0.573-0.005,0.857,0c0.336,0.006,0.671,0.018,1.007,0.027c0.013,0.343,0.028,0.687,0.036,1.029
		c0.006,0.276,0.001,0.553,0.001,0.842C35.316,38.804,34.703,38.804,34.06,38.804z"/>
	<path fill-rule="evenodd" clip-rule="evenodd" fill="#BF973F" d="M19.783,22.615c0.528,0,1.05-0.003,1.571,0.004
		c0.054,0,0.126,0.048,0.158,0.096c0.296,0.43,0.703,0.695,1.201,0.843c-0.97,0-1.94,0-2.93,0
		C19.783,23.252,19.783,22.947,19.783,22.615z"/>
	<path fill-rule="evenodd" clip-rule="evenodd" fill="#BF973F" d="M26.407,23.56c-0.983,0-1.959,0-2.935,0
		c0.508-0.15,0.927-0.425,1.224-0.873c0.026-0.04,0.098-0.068,0.148-0.069c0.514-0.005,1.028-0.003,1.563-0.003
		C26.407,22.935,26.407,23.241,26.407,23.56z"/>
	<path fill-rule="evenodd" clip-rule="evenodd" fill="#BF973F" d="M14.994,12.147c0-0.311,0-0.622,0-0.949c0.32,0,0.62,0,0.958,0
		c0,0.315,0,0.632,0,0.949l0.007-0.007c-0.324,0-0.649,0-0.973,0L14.994,12.147z"/>
	<path fill-rule="evenodd" clip-rule="evenodd" fill="#BF973F" d="M23.574,16.407c0,0.31,0,0.62,0,0.95c-0.317,0-0.623,0-0.958,0
		c0-0.317,0-0.634,0-0.95l-0.007,0.008c0.324,0,0.648,0,0.973,0L23.574,16.407z"/>
	<path fill-rule="evenodd" clip-rule="evenodd" fill="#BF973F" d="M13.108,20.219c0,0.309,0,0.619,0,0.949c-0.333,0-0.636,0-0.958,0
		c0-0.318,0-0.635,0-0.951l-0.009,0.009c0.325,0,0.648,0,0.973-0.001L13.108,20.219z"/>
	<path fill-rule="evenodd" clip-rule="evenodd" fill="#BF973F" d="M12.149,19.318c0-0.318,0-0.636,0-0.968c0.314,0,0.613,0,0.958,0
		c0,0.306,0,0.606,0,0.907l0.008-0.005c-0.325,0.018-0.649,0.036-0.974,0.054L12.149,19.318z"/>
	<path fill-rule="evenodd" clip-rule="evenodd" fill="#BF973F" d="M23.575,15.448c0.307,0,0.615,0,0.938,0c0,0.352,0,0.648,0,0.959
		c-0.322,0-0.63,0-0.938,0c0,0,0.007,0.008,0.007,0.008c0-0.325,0-0.65,0-0.975L23.575,15.448z"/>
	<path fill-rule="evenodd" clip-rule="evenodd" fill="#BF973F" d="M22.616,16.407c-0.308,0-0.616,0-0.939,0c0-0.305,0-0.596,0-0.917
		c0.312-0.014,0.625-0.028,0.938-0.042l-0.007-0.007c0,0.325,0,0.649,0,0.975L22.616,16.407z"/>
	<path fill-rule="evenodd" clip-rule="evenodd" fill="#BF973F" d="M15.952,12.147c0.308,0,0.617,0,0.952,0
		c0,0.286,0.008,0.553-0.008,0.819c-0.002,0.045-0.104,0.118-0.164,0.122c-0.259,0.018-0.52,0.015-0.78,0.019l0.007,0.008
		c0-0.325,0-0.649,0-0.974L15.952,12.147z"/>
	<path fill-rule="evenodd" clip-rule="evenodd" fill="#BF973F" d="M14.993,13.106c-0.26-0.004-0.521-0.001-0.78-0.019
		c-0.06-0.004-0.161-0.076-0.164-0.122c-0.015-0.266-0.007-0.533-0.007-0.819c0.335,0,0.644,0,0.952,0l-0.007-0.007
		c0,0.324,0,0.649,0,0.974L14.993,13.106z"/>
	<path fill-rule="evenodd" clip-rule="evenodd" fill="#BF973F" d="M22.615,15.448c0-0.293,0-0.587,0-0.903c0.318,0,0.623,0,0.959,0
		c0,0.302,0,0.603,0,0.903l0.006-0.007c-0.324,0-0.648,0-0.973,0L22.615,15.448z"/>
	<path fill-rule="evenodd" clip-rule="evenodd" fill="#BF973F" d="M12.15,20.217c-0.311,0-0.621,0-0.95,0c0-0.303,0-0.602,0-0.946
		c0.318,0.016,0.633,0.032,0.949,0.047l-0.008-0.012c0,0.307,0,0.614,0,0.92L12.15,20.217z"/>
	<path fill-rule="evenodd" clip-rule="evenodd" fill="#BF973F" d="M15.953,13.106c0,0.302,0,0.604,0,0.919c-0.331,0-0.63,0-0.96,0
		c0-0.315,0-0.617,0-0.919l-0.006,0.008c0.324,0,0.649,0,0.974,0L15.953,13.106z"/>
	<path fill-rule="evenodd" clip-rule="evenodd" fill="#BF973F" d="M13.107,19.257c0.3,0.014,0.602,0.028,0.917,0.042
		c0,0.308,0,0.606,0,0.919c-0.314,0-0.616,0-0.916,0l0.006,0.006c0-0.324,0-0.649,0.001-0.973L13.107,19.257z"/>
</g>
</svg>
