<?xml version="1.0" encoding="utf-8"?>
<!-- Generator: Adobe Illustrator 16.0.0, SVG Export Plug-In . SVG Version: 6.00 Build 0)  -->
<!DOCTYPE svg PUBLIC "-//W3C//DTD SVG 1.1//EN" "http://www.w3.org/Graphics/SVG/1.1/DTD/svg11.dtd">
<svg version="1.1" id="Layer_1" xmlns="http://www.w3.org/2000/svg" xmlns:xlink="http://www.w3.org/1999/xlink" x="0px" y="0px"
	 width="50px" height="50px" viewBox="0 0 50 50" enable-background="new 0 0 50 50" xml:space="preserve">
<circle fill="none" stroke="#BF973F" stroke-linecap="round" stroke-linejoin="round" stroke-miterlimit="10" cx="25" cy="25" r="24.125"/>
<g>
	<path fill-rule="evenodd" clip-rule="evenodd" fill="#BF973F" d="M20.118,31.504c-0.382-0.414-0.712-0.748-1.015-1.104
		c-1.213-1.429-1.351-3.111-0.4-4.724c0.06-0.102,0.112-0.21,0.186-0.302c0.591-0.738,0.731-1.589,0.736-2.513
		c0.009-1.441,0.097-2.881,0.152-4.322c0.004-0.105,0.02-0.209,0.032-0.334c0.36,0,0.707,0,1.075,0
		c0.012,0.101,0.032,0.178,0.029,0.255c-0.075,1.972-0.15,3.944-0.237,5.916c-0.008,0.167-0.084,0.343-0.169,0.492
		c-0.292,0.513-0.611,1.01-0.904,1.523c-0.421,0.736-0.501,1.516-0.222,2.319c0.037,0.104,0.176,0.243,0.27,0.245
		c1.274,0.016,2.548,0.011,3.899,0.011c-0.198-4.365-0.591-8.688-0.845-13.032c-0.57,0-1.098,0-1.673,0
		c-0.025,0.431-0.05,0.861-0.076,1.315c-0.364,0-0.721,0-1.039,0c0-0.768-0.02-1.508,0.004-2.247
		c0.051-1.547,0.129-3.093,0.186-4.64c0.011-0.285,0.1-0.498,0.351-0.647c0.853-0.507,1.694-1.032,2.555-1.525
		c0.886-0.507,1.923-0.102,2.162,0.828c0.132,0.516-0.027,0.957-0.389,1.329c-0.354,0.364-0.728,0.71-1.07,1.085
		c-0.096,0.105-0.166,0.287-0.156,0.427c0.193,2.971,0.398,5.941,0.604,8.911c0.154,2.227,0.349,4.453,0.457,6.682
		c0.073,1.498,0.026,3.001,0.032,4.502c0.001,0.14,0,0.279,0,0.435c1.034,0.234,1.734,0.823,2.035,1.83
		c0.3,1.006-0.118,1.848-0.721,2.702c0.466,0.047,0.868,0.086,1.324,0.132c0-0.243-0.005-0.463,0.001-0.683
		c0.011-0.472,0.205-0.669,0.669-0.68c0.165-0.004,0.331-0.011,0.496,0.001c0.352,0.025,0.656-0.014,0.916-0.314
		c0.214-0.245,0.508-0.218,0.764-0.008c0.063,0.053,0.123,0.111,0.176,0.175c0.309,0.367,0.668,0.61,1.153,0.747
		c0.816,0.23,1.323,0.822,1.561,1.646c0.04,0.139,0.154,0.288,0.276,0.365c0.797,0.5,1.161,1.372,0.919,2.259
		c-0.232,0.854-1.002,1.445-1.92,1.45c-1.549,0.008-3.097,0.003-4.645,0.002c-0.558-0.001-0.77-0.232-0.727-0.79
		c0.008-0.105,0.03-0.21,0.05-0.314c0.073-0.395-0.086-0.588-0.494-0.597c-0.127-0.003-0.254-0.001-0.397-0.001
		c0-0.382,0-0.732,0-1.05c0.957-0.146,1.905-0.308,2.86-0.419c0.163-0.02,0.372,0.156,0.522,0.285
		c0.134,0.113,0.217,0.287,0.391,0.405c0-0.05,0.007-0.102-0.001-0.149c-0.068-0.402,0.021-0.582,0.395-0.765
		c0.478-0.231,0.958-0.457,1.437-0.688c0.021-0.009,0.032-0.033,0.061-0.064c-0.149-0.301-0.402-0.506-0.723-0.548
		c-0.52-0.068-0.958-0.241-1.17-0.61c-0.519,0.06-0.952,0.109-1.437,0.166c0,0.233,0.007,0.49-0.001,0.745
		c-0.013,0.412-0.253,0.643-0.655,0.61c-0.836-0.066-1.671-0.143-2.505-0.227c-0.229-0.022-0.453-0.089-0.746-0.148
		c-0.085,0.094-0.21,0.231-0.359,0.395c0.498,0.319,0.865,0.729,1.004,1.313c0.286,1.203-0.579,2.414-1.811,2.438
		c-1.737,0.034-3.476,0.048-5.211-0.003c-1.855-0.054-2.987-2.054-2.156-3.756c0.829-1.697,1.691-3.377,2.525-5.071
		C18.861,32.452,19.134,31.675,20.118,31.504z M20.114,32.784c-0.031-0.012-0.063-0.022-0.094-0.034
		c-0.058,0.096-0.124,0.188-0.174,0.287c-0.934,1.866-1.869,3.731-2.796,5.602c-0.575,1.158,0.098,2.235,1.393,2.239
		c1.168,0.003,2.337,0.001,3.506,0c0.437,0,0.874,0.012,1.31-0.006c0.475-0.02,0.825-0.396,0.822-0.851
		c-0.003-0.454-0.356-0.817-0.833-0.841c-0.164-0.008-0.331,0.007-0.493,0.03c-1.203,0.171-2.404,0.35-3.607,0.518
		c-0.513,0.071-0.808-0.256-0.706-0.77c0.162-0.821,0.342-1.64,0.484-2.464c0.07-0.404,0.261-0.65,0.646-0.798
		c0.438-0.167,0.858-0.385,1.372-0.619c-0.666-0.042-0.83-0.217-0.832-0.778C20.113,33.795,20.114,33.289,20.114,32.784z
		 M21.289,33.509c-0.027,0.041-0.055,0.082-0.082,0.123c0.107,0.073,0.205,0.17,0.323,0.216c0.45,0.179,0.712,0.507,0.769,0.977
		c0.055,0.458-0.129,0.829-0.507,1.099c-0.083,0.06-0.172,0.113-0.269,0.177c0.33,0.578,0.651,1.142,0.974,1.704
		c0.196,0.342,0.245,0.346,0.492,0.049c0.516-0.623,1.082-1.199,1.808-1.568c0.371-0.188,0.569-0.479,0.724-0.824
		c0.394-0.881-0.188-1.899-1.153-1.94C23.343,33.475,22.315,33.509,21.289,33.509z M22.591,14.763c0-0.146,0.007-0.274-0.001-0.4
		c-0.06-0.86-0.106-1.721-0.191-2.578c-0.042-0.421,0.044-0.747,0.371-1.04c0.438-0.394,0.845-0.824,1.248-1.255
		c0.067-0.072,0.047-0.225,0.067-0.341c-0.116-0.02-0.233-0.062-0.346-0.052c-0.086,0.007-0.169,0.077-0.25,0.125
		c-0.668,0.399-1.333,0.805-2.005,1.198c-0.168,0.098-0.251,0.205-0.257,0.411c-0.028,0.932-0.08,1.863-0.113,2.795
		c-0.013,0.374-0.002,0.749-0.002,1.136C21.596,14.763,22.086,14.763,22.591,14.763z M21.216,32.344c0.812,0,1.547,0,2.273,0
		c0-0.762,0-1.498,0-2.22c-1.037,0-2.044,0-3.052,0C21.245,30.669,21.374,31.447,21.216,32.344z M20.434,36.485
		c-0.168,0.165-0.365,0.268-0.404,0.412c-0.137,0.507-0.22,1.027-0.334,1.601c0.598-0.086,1.147-0.165,1.744-0.251
		C21.102,37.654,20.793,37.114,20.434,36.485z M29.715,40.756c1.369,0.473,2.4-0.74,2.273-1.696
		c-0.187,0.086-0.363,0.178-0.548,0.252c-0.25,0.1-0.422,0.227-0.478,0.531c-0.076,0.412-0.383,0.667-0.771,0.808
		C30.055,40.7,29.903,40.715,29.715,40.756z M33.079,39.844c-0.128,0.296-0.255,0.591-0.41,0.951
		C33.068,40.543,33.204,40.248,33.079,39.844z M29.048,40.53c-0.197-0.165-0.23-0.682-0.716-0.4
		C28.592,40.275,28.82,40.402,29.048,40.53z"/>
</g>
</svg>
